<svg width="455" height="288" viewBox="0 0 455 288" fill="none" xmlns="http://www.w3.org/2000/svg">
<g clip-path="url(#clip0_1837_135480)">
<path d="M376.726 287.589L377.958 287.565C377.481 273.881 376.021 260.248 373.586 246.773C368.262 217.923 359.407 198.976 347.27 190.458L346.562 191.465C374.916 211.363 376.712 286.829 376.726 287.589Z" fill="#2F2E41"/>
<path d="M361.33 287.295L362.562 287.271C362.535 285.908 361.766 253.785 349.113 244.907L348.406 245.914C360.548 254.434 361.324 286.967 361.33 287.295Z" fill="#2F2E41"/>
<path d="M339.555 191.577C342.956 191.577 345.712 188.822 345.712 185.423C345.712 182.025 342.956 179.27 339.555 179.27C336.155 179.27 333.398 182.025 333.398 185.423C333.398 188.822 336.155 191.577 339.555 191.577Z" fill="#E4B19C"/>
<path d="M342.602 244.5C346.003 244.5 348.759 241.745 348.759 238.346C348.759 234.948 346.003 232.193 342.602 232.193C339.202 232.193 336.445 234.948 336.445 238.346C336.445 241.745 339.202 244.5 342.602 244.5Z" fill="#E4B19C"/>
<path d="M364.202 195.266C363.045 202.653 366.061 209.26 366.061 209.26C366.061 209.26 370.953 203.891 372.11 196.504C373.267 189.117 370.251 182.509 370.251 182.509C370.251 182.509 365.359 187.879 364.202 195.266Z" fill="#2F2E41"/>
<path d="M344.077 213.207C351.153 215.633 358.188 213.816 358.188 213.816C358.188 213.816 353.75 208.066 346.674 205.64C339.597 203.214 332.562 205.031 332.562 205.031C332.562 205.031 337 210.781 344.077 213.207Z" fill="#2F2E41"/>
<path d="M343.852 260.076C347.054 261.081 350.465 261.228 353.742 260.502C351.661 257.854 348.859 255.864 345.672 254.771C342.485 253.679 339.05 253.531 335.781 254.345C337.923 256.928 340.706 258.904 343.852 260.076Z" fill="#2F2E41"/>
<path d="M200.162 95.5059L160.467 74.8747C160.467 74.8747 147.137 60.202 138.765 53.5745C130.393 46.9471 127.816 51.8158 127.816 51.8158L124.297 57.6782L132.802 69.5008L155.774 88.9445L196.823 105.014C197.465 106.065 198.392 106.912 199.496 107.457C200.601 108.002 201.837 108.223 203.062 108.093C204.287 107.964 205.45 107.49 206.416 106.726C207.382 105.962 208.112 104.94 208.52 103.778C208.928 102.617 208.997 101.363 208.721 100.164C208.445 98.9638 207.833 97.8671 206.958 97.0008C206.083 96.1345 204.98 95.5342 203.777 95.2696C202.574 95.005 201.321 95.0869 200.162 95.5059Z" fill="#9F616A"/>
<path d="M96.9121 77.6626L94.562 63.292L87.926 61.6339C87.926 61.6339 82.6595 60.0125 81.4284 70.6155C80.1974 81.2185 81.1518 101.015 81.1518 101.015L67.6787 143.658C66.5579 144.179 65.6084 145.008 64.9405 146.047C64.2727 147.087 63.914 148.295 63.9064 149.53C63.8987 150.765 64.2423 151.977 64.8972 153.025C65.5521 154.073 66.4913 154.913 67.6055 155.448C68.7196 155.983 69.9629 156.19 71.1905 156.046C72.4181 155.902 73.5795 155.413 74.5395 154.635C75.4995 153.856 76.2185 152.822 76.6129 151.651C77.0073 150.48 77.0608 149.221 76.7671 148.021L94.4239 107.647L96.9121 77.6626Z" fill="#9F616A"/>
<path d="M151.799 279.332L160.482 279.332L164.613 245.855L151.797 245.856L151.799 279.332Z" fill="#9F616A"/>
<path d="M149.578 276.499L166.679 276.498H166.68C169.57 276.498 172.342 277.646 174.386 279.689C176.43 281.731 177.578 284.502 177.578 287.39V287.744L149.579 287.745L149.578 276.499Z" fill="#2F2E41"/>
<path d="M57.0872 279.332L65.771 279.332L69.9017 245.855L57.0859 245.856L57.0872 279.332Z" fill="#9F616A"/>
<path d="M54.8672 276.499L71.9682 276.498H71.9689C74.8592 276.498 77.6311 277.646 79.6748 279.689C81.7186 281.731 82.8668 284.502 82.867 287.39V287.744L54.8677 287.745L54.8672 276.499Z" fill="#2F2E41"/>
<path d="M99.9546 48.9561L85.5518 61.2449L97.3718 98.6312L100.039 106.98C100.039 106.98 83.7536 121.987 73.6773 163.91C63.6009 205.833 47.1172 261.539 47.1172 261.539L81.9115 271.494L110.219 176.66L143.515 251.06L147.36 273.066L176.99 264.333L170.001 209.144L135.053 113.611L138.684 88.2872C138.684 88.2872 144.135 75.647 134.665 62.2645L131.694 49.6898L121.053 47.0701L99.9546 48.9561Z" fill="#2F2E41"/>
<path d="M123.883 42.2755H84.9431C84.1421 42.2746 83.3742 41.9562 82.8078 41.3901C82.2414 40.824 81.9228 40.0564 81.9219 39.2558V22.4798C81.9219 16.5178 84.2915 10.8 88.5094 6.58419C92.7273 2.36841 98.4481 0 104.413 0C110.378 0 116.099 2.36841 120.317 6.58419C124.535 10.8 126.904 16.5178 126.904 22.4798V39.2558C126.903 40.0564 126.585 40.824 126.018 41.3901C125.452 41.9562 124.684 42.2746 123.883 42.2755Z" fill="#2F2E41"/>
<path d="M123.504 33.309C127.872 25.322 124.935 15.3079 116.944 10.9418C108.953 6.57574 98.934 9.51104 94.5657 17.498C90.1975 25.485 93.1343 35.4991 101.125 39.8652C109.116 44.2313 119.136 41.2959 123.504 33.309Z" fill="#9F616A"/>
<path d="M132.221 24.1574H108.41L108.166 20.7406L106.945 24.1574H103.279L102.795 17.3854L100.375 24.1574H93.2812V23.8219C93.2865 19.1073 95.1627 14.5873 98.4981 11.2536C101.833 7.91986 106.356 6.04464 111.073 6.03931H114.43C119.147 6.04463 123.669 7.91985 127.004 11.2536C130.34 14.5873 132.216 19.1073 132.221 23.8219V24.1574Z" fill="#2F2E41"/>
<path d="M108.22 45.4071C108.041 45.4069 107.862 45.3912 107.685 45.3599L90.25 42.2852V13.4843H109.443L108.968 14.038C102.357 21.7445 107.337 34.2406 110.895 41.0034C111.157 41.4987 111.274 42.058 111.232 42.6168C111.19 43.1756 110.991 43.7113 110.658 44.162C110.379 44.5475 110.013 44.8614 109.589 45.0778C109.165 45.2942 108.696 45.4071 108.22 45.4071Z" fill="#2F2E41"/>
<path d="M252.405 196.397L99.6007 250.395C95.8226 251.726 91.6709 251.504 88.0563 249.778C84.4417 248.053 81.6595 244.965 80.32 241.192L54.0703 166.986C52.7394 163.209 52.9614 159.06 54.6876 155.447C56.4139 151.834 59.5035 149.053 63.2785 147.715L216.083 93.7166C219.861 92.3863 224.013 92.6082 227.627 94.3336C231.242 96.059 234.024 99.147 235.364 102.92L261.613 177.126C262.944 180.903 262.722 185.052 260.996 188.665C259.27 192.278 256.18 195.059 252.405 196.397Z" fill="white"/>
<path d="M261.619 177.126L261.758 177.519C263.033 181.125 262.822 185.09 261.173 188.541C259.523 191.992 256.569 194.647 252.961 195.921L99.3927 250.189C95.7854 251.464 91.8194 251.254 88.3669 249.606C84.9145 247.958 82.2583 245.007 80.9826 241.401L80.8438 241.009L261.619 177.126Z" fill="#F2F2F2"/>
<path d="M90.0638 164.944C79.9352 171.605 66.954 166.592 62.4141 159.29L63.1379 158.879C71.7607 153.507 84.5663 156.5 90.0638 164.944Z" fill="#E4B19C"/>
<path d="M216.991 183.843C214.512 184.719 212.28 184.679 210.356 183.723C206.007 181.564 203.967 175.161 202.327 170.016C201.85 168.519 201.4 167.105 200.941 165.949L200.934 165.932C200.136 163.639 200.275 161.125 201.321 158.934C202.367 156.743 204.236 155.054 206.521 154.232L227.074 146.969C229.55 146.094 231.78 146.134 233.702 147.088C238.05 149.245 240.092 155.646 241.733 160.789C242.211 162.289 242.663 163.705 243.124 164.863C243.927 167.157 243.79 169.676 242.744 171.871C241.699 174.065 239.828 175.758 237.539 176.582L216.991 183.843ZM201.795 165.621C202.265 166.804 202.719 168.229 203.2 169.738C204.787 174.718 206.762 180.917 210.763 182.904C212.481 183.757 214.418 183.782 216.686 182.98L237.233 175.719C239.291 174.98 240.974 173.458 241.917 171.485C242.859 169.513 242.985 167.248 242.266 165.183C241.801 164.014 241.344 162.582 240.86 161.067C239.272 156.088 237.295 149.892 233.295 147.908C231.58 147.056 229.644 147.032 227.379 147.832L206.827 155.095C204.771 155.834 203.09 157.354 202.148 159.325C201.206 161.295 201.079 163.557 201.795 165.621Z" fill="#3F3D56"/>
<path d="M85.8101 167.342C82.1984 168.594 78.3078 168.808 74.5806 167.959C69.1374 166.765 64.1975 163.516 61.6889 159.483L61.4375 159.078L62.5672 158.437C71.3198 152.988 84.4446 155.942 90.1098 164.641L90.3582 165.023L89.9778 165.273C88.6776 166.129 87.2781 166.824 85.8101 167.342ZM62.7255 159.399C65.1806 163.045 69.7491 165.962 74.777 167.065C79.6646 168.206 84.805 167.377 89.0854 164.758C83.5437 156.746 71.2662 154.088 63.044 159.218L62.7255 159.399Z" fill="#3F3D56"/>
<path d="M91.173 220.603C89.8899 221.111 88.4927 221.259 87.1313 221.033C85.7699 220.808 84.4958 220.215 83.4456 219.32C82.2164 218.247 81.2846 216.875 80.74 215.336C80.1953 213.798 80.0562 212.146 80.336 210.538C80.5959 209.155 81.2338 207.871 82.1791 206.828C83.1245 205.785 84.3402 205.024 85.6918 204.629L113.077 194.951C114.377 194.413 115.8 194.244 117.19 194.462C118.58 194.681 119.882 195.279 120.954 196.19C122.182 197.264 123.113 198.636 123.657 200.175C124.201 201.713 124.34 203.365 124.059 204.972C123.518 207.797 121.61 209.878 118.702 210.873L91.3162 220.551C91.2684 220.569 91.2207 220.586 91.173 220.603ZM85.8621 205.538C84.6936 205.899 83.6454 206.571 82.8303 207.482C82.0151 208.393 81.4638 209.509 81.2354 210.71C80.9834 212.158 81.1087 213.647 81.5994 215.032C82.0901 216.418 82.9296 217.654 84.037 218.622C84.9863 219.425 86.1399 219.951 87.3697 220.14C88.5995 220.328 89.8576 220.173 91.0045 219.691L118.404 210.008C119.6 209.663 120.678 208.994 121.517 208.075C122.356 207.156 122.925 206.022 123.16 204.8C123.412 203.352 123.288 201.864 122.798 200.478C122.307 199.092 121.469 197.856 120.362 196.888C119.411 196.085 118.257 195.56 117.027 195.37C115.796 195.18 114.538 195.333 113.389 195.812L85.9879 205.495C85.9459 205.509 85.9037 205.524 85.8621 205.538L85.8621 205.538Z" fill="#3F3D56"/>
<path d="M217.177 162.01L208.544 165.06C207.972 165.263 207.343 165.229 206.795 164.968C206.247 164.706 205.825 164.238 205.623 163.666C205.421 163.094 205.454 162.465 205.716 161.917C205.977 161.37 206.446 160.948 207.018 160.746L215.651 157.695C216.224 157.493 216.853 157.526 217.401 157.788C217.949 158.049 218.37 158.518 218.573 159.09C218.775 159.662 218.742 160.291 218.48 160.839C218.218 161.386 217.75 161.807 217.177 162.01Z" fill="#E4B19C"/>
<path d="M219.615 168.913L210.982 171.963C210.41 172.166 209.78 172.132 209.232 171.871C208.684 171.609 208.263 171.141 208.061 170.569C207.858 169.997 207.892 169.368 208.153 168.82C208.415 168.273 208.883 167.851 209.456 167.649L218.089 164.598C218.661 164.396 219.291 164.429 219.838 164.691C220.386 164.952 220.808 165.421 221.01 165.993C221.213 166.565 221.179 167.194 220.918 167.741C220.656 168.289 220.187 168.71 219.615 168.913Z" fill="#E4B19C"/>
<path d="M222.06 175.816L213.427 178.866C213.144 178.966 212.843 179.01 212.543 178.994C212.243 178.978 211.949 178.903 211.678 178.774C211.406 178.644 211.163 178.463 210.962 178.239C210.761 178.016 210.606 177.755 210.506 177.472C210.406 177.188 210.362 176.888 210.378 176.588C210.394 176.288 210.469 175.994 210.598 175.723C210.728 175.452 210.91 175.209 211.133 175.008C211.357 174.807 211.618 174.652 211.901 174.552L220.534 171.501C220.818 171.401 221.118 171.358 221.418 171.374C221.718 171.389 222.012 171.464 222.284 171.594C222.555 171.723 222.798 171.905 222.999 172.128C223.2 172.352 223.355 172.612 223.455 172.896C223.556 173.179 223.599 173.479 223.583 173.779C223.567 174.079 223.492 174.373 223.363 174.644C223.233 174.916 223.052 175.158 222.828 175.359C222.605 175.56 222.344 175.715 222.06 175.816Z" fill="#E4B19C"/>
<path d="M232.287 156.671L223.654 159.722C223.37 159.822 223.07 159.865 222.77 159.849C222.47 159.833 222.175 159.759 221.904 159.629C221.633 159.5 221.39 159.318 221.189 159.095C220.988 158.871 220.833 158.61 220.732 158.327C220.632 158.044 220.589 157.744 220.605 157.444C220.621 157.144 220.695 156.85 220.825 156.578C220.955 156.307 221.136 156.064 221.36 155.863C221.583 155.662 221.844 155.507 222.128 155.407L230.761 152.357C231.333 152.154 231.962 152.188 232.51 152.449C233.058 152.711 233.48 153.179 233.682 153.751C233.884 154.323 233.851 154.952 233.589 155.5C233.328 156.047 232.859 156.469 232.287 156.671Z" fill="#E4B19C"/>
<path d="M234.724 163.574L226.091 166.625C225.808 166.725 225.508 166.768 225.207 166.752C224.907 166.736 224.613 166.662 224.342 166.532C224.07 166.403 223.827 166.221 223.626 165.998C223.425 165.774 223.27 165.513 223.17 165.23C223.07 164.947 223.026 164.647 223.042 164.347C223.058 164.046 223.133 163.752 223.263 163.481C223.392 163.21 223.574 162.967 223.797 162.766C224.021 162.565 224.282 162.41 224.565 162.31L233.198 159.26C233.482 159.159 233.782 159.116 234.082 159.132C234.382 159.148 234.677 159.223 234.948 159.352C235.219 159.482 235.462 159.663 235.663 159.887C235.864 160.11 236.019 160.371 236.12 160.654C236.22 160.937 236.263 161.237 236.247 161.538C236.231 161.838 236.157 162.132 236.027 162.403C235.897 162.674 235.716 162.917 235.492 163.118C235.269 163.319 235.008 163.474 234.724 163.574Z" fill="#E4B19C"/>
<path d="M237.17 170.477L228.537 173.527C227.964 173.73 227.335 173.696 226.787 173.435C226.239 173.173 225.818 172.705 225.615 172.133C225.413 171.561 225.446 170.932 225.708 170.384C225.97 169.837 226.438 169.415 227.01 169.213L235.643 166.162C235.927 166.062 236.227 166.019 236.528 166.035C236.828 166.051 237.122 166.125 237.393 166.255C237.664 166.384 237.907 166.566 238.108 166.789C238.31 167.013 238.465 167.274 238.565 167.557C238.665 167.84 238.708 168.14 238.693 168.44C238.677 168.74 238.602 169.034 238.472 169.306C238.343 169.577 238.161 169.82 237.937 170.021C237.714 170.222 237.453 170.377 237.17 170.477Z" fill="#E4B19C"/>
<path d="M241.08 119.074L60.3047 182.956L60.6099 183.819L241.386 119.936L241.08 119.074Z" fill="#3F3D56"/>
<path d="M252.405 196.397L99.6007 250.395C95.8226 251.726 91.6709 251.504 88.0563 249.778C84.4417 248.053 81.6595 244.965 80.32 241.192L54.0703 166.986C52.7394 163.209 52.9614 159.06 54.6876 155.447C56.4139 151.834 59.5035 149.053 63.2785 147.715L216.083 93.7166C219.861 92.3863 224.013 92.6082 227.627 94.3336C231.242 96.059 234.024 99.147 235.364 102.92L261.613 177.126C262.944 180.903 262.722 185.052 260.996 188.665C259.27 192.278 256.18 195.059 252.405 196.397ZM63.5838 148.577C60.0375 149.835 57.1352 152.447 55.5136 155.841C53.8919 159.235 53.6834 163.133 54.9336 166.68L81.1833 240.887C82.4416 244.431 85.0552 247.332 88.4507 248.953C91.8463 250.574 95.7464 250.782 99.2955 249.532L252.1 195.534C255.646 194.277 258.548 191.665 260.17 188.271C261.792 184.877 262 180.979 260.75 177.431L234.5 103.225C233.242 99.6808 230.628 96.78 227.233 95.1591C223.837 93.5383 219.937 93.3298 216.388 94.5795L63.5838 148.577Z" fill="#3F3D56"/>
<path d="M454.384 288H0.615697C0.452404 288 0.295799 287.935 0.180333 287.82C0.0648674 287.704 0 287.548 0 287.385C0 287.221 0.0648674 287.065 0.180333 286.95C0.295799 286.834 0.452404 286.769 0.615697 286.769H454.384C454.548 286.769 454.704 286.834 454.82 286.95C454.935 287.065 455 287.221 455 287.385C455 287.548 454.935 287.704 454.82 287.82C454.704 287.935 454.548 288 454.384 288Z" fill="#CBCBCB"/>
</g>
<defs>
<clipPath id="clip0_1837_135480">
<rect width="455" height="288" fill="white"/>
</clipPath>
</defs>
</svg>
