<svg width="264" height="211" viewBox="0 0 264 211" fill="none" xmlns="http://www.w3.org/2000/svg">
<rect width="264" height="211" rx="10" fill="#FCF7F5"/>
<g clip-path="url(#clip0_1388_91899)">
<path d="M143.944 69H119.944C117.791 69 116 70.7906 116 73V93C116 95.2094 117.791 97 119.944 97H143.944C146.153 97 147.944 95.2094 147.944 93V73C147.944 70.7906 146.207 69 143.944 69ZM122.944 73C124.601 73 125.944 74.3431 125.944 76C125.944 77.6569 124.657 79 122.944 79C121.232 79 119.944 77.6569 119.944 76C119.944 74.3431 121.343 73 122.944 73ZM143.882 92.475C143.707 92.8 143.369 93 143.001 93H121.126C120.75 93 120.406 92.7888 120.235 92.4531C120.064 92.1177 120.097 91.715 120.318 91.4106L124.693 85.4106C124.882 85.15 125.182 85 125.501 85C125.819 85 126.12 85.1526 126.309 85.4109L128.337 88.1928L134.169 79.499C134.357 79.1687 134.669 79 135.001 79C135.332 79 135.647 79.167 135.832 79.4453L143.832 91.4453C144.038 91.75 144.057 92.1438 143.882 92.475Z" fill="black"/>
</g>
<path d="M45.92 136H43.46V121.52H45.86L51.1 128.5C51.98 129.673 52.84 130.84 53.68 132L53.72 131.98C53.6933 131.073 53.68 129.613 53.68 127.6V121.52H56.14V136H53.74L48.5 129.02C47.62 127.847 46.76 126.68 45.92 125.52L45.88 125.54C45.9067 126.447 45.92 127.907 45.92 129.92V136ZM61.6255 128.94C61.0788 129.513 60.8055 130.227 60.8055 131.08C60.8055 131.933 61.0788 132.653 61.6255 133.24C62.1855 133.813 62.8855 134.1 63.7255 134.1C64.5655 134.1 65.2588 133.813 65.8055 133.24C66.3655 132.653 66.6455 131.933 66.6455 131.08C66.6455 130.227 66.3655 129.513 65.8055 128.94C65.2588 128.353 64.5655 128.06 63.7255 128.06C62.8855 128.06 62.1855 128.353 61.6255 128.94ZM59.9055 134.74C58.8921 133.753 58.3855 132.533 58.3855 131.08C58.3855 129.627 58.8921 128.407 59.9055 127.42C60.9321 126.433 62.2055 125.94 63.7255 125.94C65.2455 125.94 66.5121 126.433 67.5255 127.42C68.5521 128.407 69.0655 129.627 69.0655 131.08C69.0655 132.533 68.5521 133.753 67.5255 134.74C66.5121 135.727 65.2455 136.22 63.7255 136.22C62.2055 136.22 60.9321 135.727 59.9055 134.74ZM76.1363 136V121.52H78.6763V136H76.1363ZM94.6845 136V130.24C94.6845 129.48 94.5379 128.933 94.2445 128.6C93.9379 128.253 93.5179 128.08 92.9845 128.08C92.0912 128.08 91.2712 128.467 90.5245 129.24C90.5379 129.36 90.5445 129.56 90.5445 129.84V136H88.1245V130.24C88.1245 129.453 87.9912 128.907 87.7245 128.6C87.4179 128.253 86.9912 128.08 86.4445 128.08C85.5645 128.08 84.7445 128.473 83.9845 129.26V136H81.5645V126.16H83.9645V127.2L84.0045 127.22C84.9245 126.367 85.9712 125.94 87.1445 125.94C87.7712 125.94 88.3445 126.073 88.8645 126.34C89.3979 126.593 89.8045 126.973 90.0845 127.48C91.1912 126.453 92.3912 125.94 93.6845 125.94C94.7645 125.94 95.6179 126.273 96.2445 126.94C96.8179 127.567 97.1045 128.533 97.1045 129.84V136H94.6845ZM102.604 136.22C101.684 136.22 100.924 136 100.324 135.56C99.591 135.027 99.2244 134.273 99.2244 133.3C99.2244 132.287 99.6444 131.493 100.484 130.92C101.151 130.467 102.071 130.24 103.244 130.24C103.884 130.24 104.518 130.313 105.144 130.46V129.88C105.144 129.293 104.984 128.847 104.664 128.54C104.304 128.22 103.751 128.06 103.004 128.06C101.964 128.06 100.978 128.353 100.044 128.94V126.74C100.991 126.207 102.098 125.94 103.364 125.94C104.738 125.94 105.791 126.247 106.524 126.86C107.218 127.447 107.564 128.32 107.564 129.48V133.26C107.564 133.873 107.791 134.18 108.244 134.18C108.418 134.18 108.598 134.133 108.784 134.04V135.94C108.438 136.1 108.038 136.18 107.584 136.18C106.678 136.18 106.004 135.88 105.564 135.28H105.524C104.738 135.907 103.764 136.22 102.604 136.22ZM103.204 134.3C103.938 134.3 104.584 134.1 105.144 133.7V132.04C104.651 131.907 104.144 131.84 103.624 131.84C103.064 131.84 102.591 131.947 102.204 132.16C101.831 132.36 101.644 132.68 101.644 133.12C101.644 133.507 101.791 133.8 102.084 134C102.378 134.2 102.751 134.3 103.204 134.3ZM111.288 139.9V137.5C112.315 138.167 113.368 138.5 114.448 138.5C115.302 138.5 115.975 138.267 116.468 137.8C116.975 137.347 117.228 136.713 117.228 135.9V135.28L117.188 135.24C116.522 135.72 115.688 135.96 114.688 135.96C113.382 135.96 112.268 135.507 111.348 134.6C110.442 133.693 109.988 132.527 109.988 131.1C109.988 129.647 110.455 128.427 111.388 127.44C112.335 126.44 113.568 125.94 115.088 125.94C115.995 125.94 116.822 126.127 117.568 126.5L119.648 126.14V135.88C119.648 137.36 119.182 138.52 118.248 139.36C117.328 140.2 116.088 140.62 114.528 140.62C113.328 140.62 112.248 140.38 111.288 139.9ZM112.428 130.98C112.428 131.847 112.682 132.56 113.188 133.12C113.708 133.667 114.382 133.94 115.208 133.94C115.995 133.94 116.668 133.733 117.228 133.32V128.56C116.628 128.213 115.955 128.04 115.208 128.04C114.355 128.04 113.675 128.327 113.168 128.9C112.675 129.46 112.428 130.153 112.428 130.98ZM131.442 131.74H124.342C124.489 132.54 124.855 133.153 125.442 133.58C126.029 134.007 126.749 134.22 127.602 134.22C128.775 134.22 129.895 133.84 130.962 133.08V135.3C129.989 135.913 128.789 136.22 127.362 136.22C125.762 136.22 124.449 135.747 123.422 134.8C122.395 133.853 121.882 132.62 121.882 131.1C121.882 129.58 122.369 128.34 123.342 127.38C124.329 126.42 125.515 125.94 126.902 125.94C128.195 125.94 129.282 126.367 130.162 127.22C131.055 128.073 131.502 129.253 131.502 130.76C131.502 131.147 131.482 131.473 131.442 131.74ZM126.882 127.9C126.282 127.9 125.742 128.087 125.262 128.46C124.795 128.82 124.489 129.353 124.342 130.06H129.242C129.162 129.353 128.895 128.82 128.442 128.46C127.989 128.087 127.469 127.9 126.882 127.9ZM145.715 121.52L151.635 136H148.935L147.555 132.46H141.315L139.915 136H137.295L143.235 121.52H145.715ZM142.975 128.2L142.135 130.38H146.735L145.895 128.2C145.335 126.747 144.855 125.453 144.455 124.32H144.415C143.948 125.64 143.468 126.933 142.975 128.2ZM155.149 136L151.089 126.16H153.649L155.049 129.76C155.542 131.027 155.962 132.14 156.309 133.1H156.349C156.762 132.007 157.195 130.9 157.649 129.78L159.109 126.16H161.569L157.529 136H155.149ZM165.3 136.22C164.38 136.22 163.62 136 163.02 135.56C162.286 135.027 161.92 134.273 161.92 133.3C161.92 132.287 162.34 131.493 163.18 130.92C163.846 130.467 164.766 130.24 165.94 130.24C166.58 130.24 167.213 130.313 167.84 130.46V129.88C167.84 129.293 167.68 128.847 167.36 128.54C167 128.22 166.446 128.06 165.7 128.06C164.66 128.06 163.673 128.353 162.74 128.94V126.74C163.686 126.207 164.793 125.94 166.06 125.94C167.433 125.94 168.486 126.247 169.22 126.86C169.913 127.447 170.26 128.32 170.26 129.48V133.26C170.26 133.873 170.486 134.18 170.94 134.18C171.113 134.18 171.293 134.133 171.48 134.04V135.94C171.133 136.1 170.733 136.18 170.28 136.18C169.373 136.18 168.7 135.88 168.26 135.28H168.22C167.433 135.907 166.46 136.22 165.3 136.22ZM165.9 134.3C166.633 134.3 167.28 134.1 167.84 133.7V132.04C167.346 131.907 166.84 131.84 166.32 131.84C165.76 131.84 165.286 131.947 164.9 132.16C164.526 132.36 164.34 132.68 164.34 133.12C164.34 133.507 164.486 133.8 164.78 134C165.073 134.2 165.446 134.3 165.9 134.3ZM173.264 136V120.72H175.684V136H173.264ZM178.518 136V126.16H180.938V136H178.518ZM178.658 123.96C178.364 123.667 178.218 123.313 178.218 122.9C178.218 122.487 178.364 122.133 178.658 121.84C178.964 121.547 179.324 121.4 179.738 121.4C180.151 121.4 180.504 121.547 180.798 121.84C181.091 122.133 181.238 122.487 181.238 122.9C181.238 123.313 181.084 123.667 180.778 123.96C180.484 124.253 180.131 124.4 179.718 124.4C179.304 124.4 178.951 124.253 178.658 123.96ZM186.472 136.22C185.552 136.22 184.792 136 184.192 135.56C183.458 135.027 183.092 134.273 183.092 133.3C183.092 132.287 183.512 131.493 184.352 130.92C185.018 130.467 185.938 130.24 187.112 130.24C187.752 130.24 188.385 130.313 189.012 130.46V129.88C189.012 129.293 188.852 128.847 188.532 128.54C188.172 128.22 187.618 128.06 186.872 128.06C185.832 128.06 184.845 128.353 183.912 128.94V126.74C184.858 126.207 185.965 125.94 187.232 125.94C188.605 125.94 189.658 126.247 190.392 126.86C191.085 127.447 191.432 128.32 191.432 129.48V133.26C191.432 133.873 191.658 134.18 192.112 134.18C192.285 134.18 192.465 134.133 192.652 134.04V135.94C192.305 136.1 191.905 136.18 191.452 136.18C190.545 136.18 189.872 135.88 189.432 135.28H189.392C188.605 135.907 187.632 136.22 186.472 136.22ZM187.072 134.3C187.805 134.3 188.452 134.1 189.012 133.7V132.04C188.518 131.907 188.012 131.84 187.492 131.84C186.932 131.84 186.458 131.947 186.072 132.16C185.698 132.36 185.512 132.68 185.512 133.12C185.512 133.507 185.658 133.8 185.952 134C186.245 134.2 186.618 134.3 187.072 134.3ZM194.436 136.06V120.72H196.856V126.66L196.896 126.68C197.656 126.187 198.522 125.94 199.496 125.94C200.816 125.94 201.929 126.4 202.836 127.32C203.756 128.24 204.216 129.44 204.216 130.92C204.216 132.453 203.716 133.72 202.716 134.72C201.729 135.72 200.476 136.22 198.956 136.22C198.142 136.22 197.322 136.047 196.496 135.7L194.436 136.06ZM196.856 133.68C197.456 134.027 198.129 134.2 198.876 134.2C199.756 134.2 200.456 133.9 200.976 133.3C201.509 132.687 201.776 131.933 201.776 131.04C201.776 130.16 201.522 129.44 201.016 128.88C200.509 128.307 199.829 128.02 198.976 128.02C198.216 128.02 197.509 128.253 196.856 128.72V133.68ZM206.428 136V120.72H208.848V136H206.428ZM220.622 131.74H213.522C213.668 132.54 214.035 133.153 214.622 133.58C215.208 134.007 215.928 134.22 216.782 134.22C217.955 134.22 219.075 133.84 220.142 133.08V135.3C219.168 135.913 217.968 136.22 216.542 136.22C214.942 136.22 213.628 135.747 212.602 134.8C211.575 133.853 211.062 132.62 211.062 131.1C211.062 129.58 211.548 128.34 212.522 127.38C213.508 126.42 214.695 125.94 216.082 125.94C217.375 125.94 218.462 126.367 219.342 127.22C220.235 128.073 220.682 129.253 220.682 130.76C220.682 131.147 220.662 131.473 220.622 131.74ZM216.062 127.9C215.462 127.9 214.922 128.087 214.442 128.46C213.975 128.82 213.668 129.353 213.522 130.06H218.422C218.342 129.353 218.075 128.82 217.622 128.46C217.168 128.087 216.648 127.9 216.062 127.9Z" fill="#0F1928"/>
<defs>
<clipPath id="clip0_1388_91899">
<rect width="32" height="32" fill="white" transform="translate(116 67)"/>
</clipPath>
</defs>
</svg>
