<svg width="360" height="225" viewBox="0 0 360 225" fill="none" xmlns="http://www.w3.org/2000/svg">
<g clip-path="url(#clip0_1669_97114)">
<path d="M94.0819 137.124C131.907 137.124 162.57 106.428 162.57 68.5622C162.57 30.6964 131.907 0 94.0819 0C56.257 0 25.5938 30.6964 25.5938 68.5622C25.5938 106.428 56.257 137.124 94.0819 137.124Z" fill="#6F757E"/>
<path d="M0 16.4621C0 41.4078 15.6327 61.5935 34.9517 61.5935L0 16.4621Z" fill="#2F2E41"/>
<path d="M34.9531 61.5935C34.9531 36.3676 52.3983 15.955 73.9572 15.955L34.9531 61.5935Z" fill="#617E7A"/>
<path d="M12.6641 18.7235C12.6641 42.4192 22.6327 61.5935 34.9521 61.5935L12.6641 18.7235Z" fill="#617E7A"/>
<path d="M34.9531 61.5935C34.9531 29.3604 55.117 3.27769 80.0358 3.27769L34.9531 61.5935Z" fill="#2F2E41"/>
<path d="M27.6016 61.9117C27.6016 61.9117 32.5583 61.7589 34.0521 60.694C35.546 59.6291 41.6768 58.3576 42.0474 60.0654C42.418 61.7733 49.4964 68.5595 43.9003 68.6047C38.3042 68.6499 30.8974 67.732 29.4065 66.8229C27.9155 65.9137 27.6016 61.9117 27.6016 61.9117Z" fill="#A8A8A8"/>
<path opacity="0.2" d="M44.0002 68.0102C38.4041 68.0554 30.9973 67.1375 29.5063 66.2284C28.3709 65.536 27.9184 63.0515 27.767 61.9052C27.6622 61.9098 27.6016 61.9117 27.6016 61.9117C27.6016 61.9117 27.9155 65.9137 29.4065 66.8228C30.8974 67.732 38.3042 68.6498 43.9003 68.6046C45.5157 68.5916 46.0737 68.0163 46.043 67.1641C45.8186 67.679 45.2025 68.0004 44.0002 68.0102Z" fill="black"/>
<path d="M63.8625 144.83C97.0703 144.83 123.991 141.164 123.991 136.642C123.991 132.119 97.0703 128.453 63.8625 128.453C30.6547 128.453 3.73438 132.119 3.73438 136.642C3.73438 141.164 30.6547 144.83 63.8625 144.83Z" fill="#3F3D56"/>
<path opacity="0.1" d="M63.8647 143.517C91.7451 143.517 114.347 140.439 114.347 136.642C114.347 132.845 91.7451 129.767 63.8647 129.767C35.9843 129.767 13.3828 132.845 13.3828 136.642C13.3828 140.439 35.9843 143.517 63.8647 143.517Z" fill="black"/>
<path d="M269.004 225C319.26 225 360 219.452 360 212.607C360 205.763 319.26 200.215 269.004 200.215C218.748 200.215 178.008 205.763 178.008 212.607C178.008 219.452 218.748 225 269.004 225Z" fill="#3F3D56"/>
<path d="M99.8729 215.223C130.062 215.223 154.535 211.89 154.535 207.779C154.535 203.668 130.062 200.335 99.8729 200.335C69.6839 200.335 45.2109 203.668 45.2109 207.779C45.2109 211.89 69.6839 215.223 99.8729 215.223Z" fill="#3F3D56"/>
<path d="M148.75 201.502C177.689 208.906 233.315 191.846 239.424 172.532" stroke="#2F2E41" stroke-width="2" stroke-miterlimit="10"/>
<path d="M99.5547 83.3691C99.5547 83.3691 141.355 71.7811 143.927 109.12C146.5 146.459 109.522 157.082 138.461 164.485" stroke="#2F2E41" stroke-width="2" stroke-miterlimit="10"/>
<path d="M59.1719 172.945C59.1719 172.945 71.7352 169.462 72.5083 180.685C73.2815 191.907 62.1677 195.1 70.8654 197.325" stroke="#2F2E41" stroke-width="2" stroke-miterlimit="10"/>
<path d="M250.383 181.3L247.85 197.49C247.85 197.49 235.38 204.122 244.148 204.317C252.916 204.512 294.222 204.317 294.222 204.317C294.222 204.317 302.211 204.317 289.546 197.295L287.013 180.325L250.383 181.3Z" fill="#2F2E41"/>
<path opacity="0.1" d="M242.389 204.141C244.38 202.367 247.855 200.519 247.855 200.519L250.388 184.33L287.018 184.364L289.551 200.324C292.505 201.962 294.334 203.217 295.405 204.18C297.031 203.808 298.809 202.427 289.551 197.295L287.018 180.325L250.388 181.3L247.855 197.49C247.855 197.49 237.377 203.063 242.389 204.141Z" fill="black"/>
<path d="M345.214 68.462H191.787C188.582 68.462 185.984 71.0626 185.984 74.2707V177.735C185.984 180.943 188.582 183.544 191.787 183.544H345.214C348.418 183.544 351.016 180.943 351.016 177.735V74.2707C351.016 71.0626 348.418 68.462 345.214 68.462Z" fill="#2F2E41"/>
<path d="M345.465 74.6062H191.539V160.82H345.465V74.6062Z" fill="#3F3D56"/>
<path d="M268.505 72.8507C269.044 72.8507 269.48 72.4141 269.48 71.8754C269.48 71.3368 269.044 70.9002 268.505 70.9002C267.967 70.9002 267.531 71.3368 267.531 71.8754C267.531 72.4141 267.967 72.8507 268.505 72.8507Z" fill="#F2F2F2"/>
<path d="M351.016 167.647V177.735C351.016 178.498 350.866 179.253 350.575 179.958C350.283 180.663 349.856 181.303 349.317 181.842C348.778 182.382 348.138 182.81 347.434 183.102C346.73 183.393 345.976 183.544 345.214 183.544H191.787C191.025 183.544 190.27 183.393 189.566 183.102C188.862 182.81 188.222 182.382 187.684 181.842C187.145 181.303 186.717 180.663 186.426 179.958C186.134 179.253 185.984 178.498 185.984 177.735V167.647H351.016Z" fill="#2F2E41"/>
<path d="M311.568 214.85V216.8H206.742V215.24L206.887 214.85L209.47 207.828H309.424L311.568 214.85Z" fill="#2F2E41"/>
<path d="M351.906 212.94C351.715 213.757 350.994 214.619 349.365 215.435C343.52 218.361 331.634 214.655 331.634 214.655C331.634 214.655 322.477 213.094 322.477 208.998C322.734 208.822 323.002 208.662 323.279 208.52C325.737 207.219 333.885 204.007 348.333 208.656C349.397 208.991 350.348 209.614 351.079 210.458C351.665 211.144 352.124 212.014 351.906 212.94Z" fill="#2F2E41"/>
<path opacity="0.1" d="M351.908 212.94C344.753 215.684 338.376 215.889 331.831 211.339C328.53 209.045 325.532 208.477 323.281 208.52C325.739 207.219 333.887 204.007 348.335 208.656C349.399 208.991 350.35 209.614 351.081 210.458C351.667 211.144 352.126 212.014 351.908 212.94Z" fill="black"/>
<path d="M342.939 211.339C344.338 211.339 345.472 210.989 345.472 210.558C345.472 210.128 344.338 209.778 342.939 209.778C341.54 209.778 340.406 210.128 340.406 210.558C340.406 210.989 341.54 211.339 342.939 211.339Z" fill="#F2F2F2"/>
<path d="M268.507 179.35C270.551 179.35 272.209 177.691 272.209 175.644C272.209 173.597 270.551 171.938 268.507 171.938C266.462 171.938 264.805 173.597 264.805 175.644C264.805 177.691 266.462 179.35 268.507 179.35Z" fill="#F2F2F2"/>
<path opacity="0.1" d="M311.568 214.85V216.8H206.742V215.24L206.887 214.85H311.568Z" fill="black"/>
<path d="M101.802 51.1803H34.9219V129.077H101.802V51.1803Z" fill="#2F2E41"/>
<path d="M108.549 43.4549H28.1641V71.1373H108.549V43.4549Z" fill="#3F3D56"/>
<path d="M108.549 76.2876H28.1641V103.97H108.549V76.2876Z" fill="#3F3D56"/>
<path d="M108.549 109.12H28.1641V136.803H108.549V109.12Z" fill="#3F3D56"/>
<path opacity="0.4" d="M92.4806 48.2833H87.3359V53.4335H92.4806V48.2833Z" fill="#F4DED1"/>
<path opacity="0.8" d="M99.8712 48.2833H94.7266V53.4335H99.8712V48.2833Z" fill="#E4B19C"/>
<path d="M107.27 48.2833H102.125V53.4335H107.27V48.2833Z" fill="#E4B19C"/>
<path opacity="0.4" d="M92.4806 80.794H87.3359V85.9442H92.4806V80.794Z" fill="#F4DED1"/>
<path opacity="0.8" d="M99.8712 80.794H94.7266V85.9442H99.8712V80.794Z" fill="#E4B19C"/>
<path d="M107.27 80.794H102.125V85.9442H107.27V80.794Z" fill="#E4B19C"/>
<path opacity="0.4" d="M92.4806 113.305H87.3359V118.455H92.4806V113.305Z" fill="#F4DED1"/>
<path opacity="0.8" d="M99.8712 113.305H94.7266V118.455H99.8712V113.305Z" fill="#E4B19C"/>
<path d="M107.27 113.305H102.125V118.455H107.27V113.305Z" fill="#E4B19C"/>
<path d="M101.8 198.605C115.829 198.605 127.202 187.22 127.202 173.176C127.202 159.132 115.829 147.747 101.8 147.747C87.7712 147.747 76.3984 159.132 76.3984 173.176C76.3984 187.22 87.7712 198.605 101.8 198.605Z" fill="#2F2E41"/>
<path d="M97.9435 193.133H90.2266V206.974H97.9435V193.133Z" fill="#2F2E41"/>
<path d="M113.381 193.133H105.664V206.974H113.381V193.133Z" fill="#2F2E41"/>
<path d="M96.6574 209.549C100.209 209.549 103.088 208.469 103.088 207.135C103.088 205.802 100.209 204.721 96.6574 204.721C93.1057 204.721 90.2266 205.802 90.2266 207.135C90.2266 208.469 93.1057 209.549 96.6574 209.549Z" fill="#2F2E41"/>
<path d="M112.095 209.227C115.647 209.227 118.526 208.147 118.526 206.813C118.526 205.48 115.647 204.399 112.095 204.399C108.543 204.399 105.664 205.48 105.664 206.813C105.664 208.147 108.543 209.227 112.095 209.227Z" fill="#2F2E41"/>
<path d="M102.447 175.429C107.242 175.429 111.129 171.538 111.129 166.738C111.129 161.938 107.242 158.047 102.447 158.047C97.6525 158.047 93.7656 161.938 93.7656 166.738C93.7656 171.538 97.6525 175.429 102.447 175.429Z" fill="white"/>
<path d="M102.449 169.635C104.047 169.635 105.342 168.338 105.342 166.738C105.342 165.138 104.047 163.841 102.449 163.841C100.85 163.841 99.5547 165.138 99.5547 166.738C99.5547 168.338 100.85 169.635 102.449 169.635Z" fill="#3F3D56"/>
<path d="M77.1646 149.528C75.1135 140.332 81.67 131.04 91.8088 128.774C101.948 126.508 111.83 132.125 113.881 141.32C115.932 150.516 109.212 153.907 99.0735 156.174C88.9346 158.44 79.2157 158.723 77.1646 149.528Z" fill="#E4B19C"/>
<path d="M125.627 168.104C132.075 165.341 136.6 161.458 135.734 159.432C134.868 157.405 128.937 158.002 122.489 160.765C116.04 163.528 111.515 167.411 112.381 169.438C113.248 171.464 119.178 170.867 125.627 168.104Z" fill="#2F2E41"/>
<path d="M78.0406 185.164C84.4893 182.401 89.0146 178.518 88.1481 176.492C87.2816 174.465 81.3516 175.062 74.9029 177.825C68.4542 180.588 63.929 184.471 64.7954 186.498C65.6619 188.524 71.592 187.927 78.0406 185.164Z" fill="#2F2E41"/>
<path d="M116.589 180.579C116.589 183.068 110.187 187.983 103.084 187.983C95.9808 187.983 89.2578 183.39 89.2578 180.901C89.2578 178.412 95.9808 178.97 103.084 178.97C110.187 178.97 116.589 178.091 116.589 180.579Z" fill="white"/>
</g>
<defs>
<clipPath id="clip0_1669_97114">
<rect width="360" height="225" fill="white"/>
</clipPath>
</defs>
</svg>
