<svg width="88" height="88" viewBox="0 0 88 88" fill="none" xmlns="http://www.w3.org/2000/svg">
<path d="M4.41667 0.25H0.25V4.41667H4.41667V0.25Z" fill="black"/>
<path d="M8.58333 0.25H4.41667V4.41667H8.58333V0.25Z" fill="black"/>
<path d="M12.75 0.25H8.58333V4.41667H12.75V0.25Z" fill="black"/>
<path d="M16.9167 0.25H12.75V4.41667H16.9167V0.25Z" fill="black"/>
<path d="M21.0833 0.25H16.9167V4.41667H21.0833V0.25Z" fill="black"/>
<path d="M25.25 0.25H21.0833V4.41667H25.25V0.25Z" fill="black"/>
<path d="M29.4167 0.25H25.25V4.41667H29.4167V0.25Z" fill="black"/>
<path d="M37.75 0.25H33.5833V4.41667H37.75V0.25Z" fill="black"/>
<path d="M41.9167 0.25H37.75V4.41667H41.9167V0.25Z" fill="black"/>
<path d="M46.0833 0.25H41.9167V4.41667H46.0833V0.25Z" fill="black"/>
<path d="M62.75 0.25H58.5833V4.41667H62.75V0.25Z" fill="black"/>
<path d="M66.9167 0.25H62.75V4.41667H66.9167V0.25Z" fill="black"/>
<path d="M71.0833 0.25H66.9167V4.41667H71.0833V0.25Z" fill="black"/>
<path d="M75.25 0.25H71.0833V4.41667H75.25V0.25Z" fill="black"/>
<path d="M79.4167 0.25H75.25V4.41667H79.4167V0.25Z" fill="black"/>
<path d="M83.5833 0.25H79.4167V4.41667H83.5833V0.25Z" fill="black"/>
<path d="M87.75 0.25H83.5833V4.41667H87.75V0.25Z" fill="black"/>
<path d="M4.41667 4.41667H0.25V8.58333H4.41667V4.41667Z" fill="black"/>
<path d="M29.4167 4.41667H25.25V8.58333H29.4167V4.41667Z" fill="black"/>
<path d="M46.0833 4.41667H41.9167L41.9167 8.58333H46.0833V4.41667Z" fill="black"/>
<path d="M50.25 4.41667H46.0833V8.58333H50.25V4.41667Z" fill="black"/>
<path d="M62.75 4.41667H58.5833V8.58333H62.75V4.41667Z" fill="black"/>
<path d="M87.75 4.41667H83.5833V8.58333H87.75V4.41667Z" fill="black"/>
<path d="M4.41667 8.58333H0.25V12.75H4.41667V8.58333Z" fill="black"/>
<path d="M12.75 8.58333H8.58333V12.75H12.75V8.58333Z" fill="black"/>
<path d="M16.9167 8.58333H12.75V12.75H16.9167V8.58333Z" fill="black"/>
<path d="M21.0833 8.58333H16.9167V12.75H21.0833V8.58333Z" fill="black"/>
<path d="M29.4167 8.58333H25.25V12.75H29.4167V8.58333Z" fill="black"/>
<path d="M41.9167 8.58333H37.75V12.75H41.9167L41.9167 8.58333Z" fill="black"/>
<path d="M54.4167 8.58333H50.25V12.75H54.4167V8.58333Z" fill="black"/>
<path d="M62.75 8.58333H58.5833V12.75H62.75V8.58333Z" fill="black"/>
<path d="M71.0833 8.58333H66.9167V12.75H71.0833V8.58333Z" fill="black"/>
<path d="M75.25 8.58333H71.0833V12.75H75.25V8.58333Z" fill="black"/>
<path d="M79.4167 8.58333H75.25V12.75H79.4167V8.58333Z" fill="black"/>
<path d="M87.75 8.58333H83.5833V12.75H87.75V8.58333Z" fill="black"/>
<path d="M4.41667 12.75H0.25V16.9167H4.41667V12.75Z" fill="black"/>
<path d="M12.75 12.75H8.58333V16.9167H12.75V12.75Z" fill="black"/>
<path d="M16.9167 12.75H12.75V16.9167H16.9167V12.75Z" fill="black"/>
<path d="M21.0833 12.75H16.9167V16.9167H21.0833V12.75Z" fill="black"/>
<path d="M29.4167 12.75H25.25V16.9167H29.4167V12.75Z" fill="black"/>
<path d="M41.9167 12.75H37.75V16.9167H41.9167V12.75Z" fill="black"/>
<path d="M46.0833 12.75H41.9167V16.9167H46.0833V12.75Z" fill="black"/>
<path d="M62.75 12.75H58.5833V16.9167H62.75V12.75Z" fill="black"/>
<path d="M71.0833 12.75H66.9167V16.9167H71.0833V12.75Z" fill="black"/>
<path d="M75.25 12.75H71.0833V16.9167H75.25V12.75Z" fill="black"/>
<path d="M79.4167 12.75H75.25V16.9167H79.4167V12.75Z" fill="black"/>
<path d="M87.75 12.75H83.5833V16.9167H87.75V12.75Z" fill="black"/>
<path d="M4.41667 16.9167H0.25V21.0833H4.41667V16.9167Z" fill="black"/>
<path d="M12.75 16.9167H8.58333V21.0833H12.75V16.9167Z" fill="black"/>
<path d="M16.9167 16.9167H12.75V21.0833H16.9167V16.9167Z" fill="black"/>
<path d="M21.0833 16.9167H16.9167V21.0833H21.0833V16.9167Z" fill="black"/>
<path d="M29.4167 16.9167H25.25V21.0833H29.4167V16.9167Z" fill="black"/>
<path d="M46.0833 16.9167H41.9167L41.9167 21.0833H46.0833V16.9167Z" fill="black"/>
<path d="M54.4167 16.9167H50.25V21.0833H54.4167V16.9167Z" fill="black"/>
<path d="M62.75 16.9167H58.5833V21.0833H62.75V16.9167Z" fill="black"/>
<path d="M71.0833 16.9167H66.9167V21.0833H71.0833V16.9167Z" fill="black"/>
<path d="M75.25 16.9167H71.0833V21.0833H75.25V16.9167Z" fill="black"/>
<path d="M79.4167 16.9167H75.25V21.0833H79.4167V16.9167Z" fill="black"/>
<path d="M87.75 16.9167H83.5833V21.0833H87.75V16.9167Z" fill="black"/>
<path d="M4.41667 21.0833H0.25V25.25H4.41667V21.0833Z" fill="black"/>
<path d="M29.4167 21.0833H25.25V25.25H29.4167V21.0833Z" fill="black"/>
<path d="M41.9167 21.0833H37.75V25.25H41.9167L41.9167 21.0833Z" fill="black"/>
<path d="M46.0833 21.0833H41.9167L41.9167 25.25H46.0833V21.0833Z" fill="black"/>
<path d="M54.4167 21.0833H50.25V25.25H54.4167V21.0833Z" fill="black"/>
<path d="M62.75 21.0833H58.5833V25.25H62.75V21.0833Z" fill="black"/>
<path d="M87.75 21.0833H83.5833V25.25H87.75V21.0833Z" fill="black"/>
<path d="M4.41667 25.25H0.25V29.4167H4.41667V25.25Z" fill="black"/>
<path d="M8.58333 25.25H4.41667V29.4167H8.58333V25.25Z" fill="black"/>
<path d="M12.75 25.25H8.58333V29.4167H12.75V25.25Z" fill="black"/>
<path d="M16.9167 25.25H12.75V29.4167H16.9167V25.25Z" fill="black"/>
<path d="M21.0833 25.25H16.9167V29.4167H21.0833V25.25Z" fill="black"/>
<path d="M25.25 25.25H21.0833V29.4167H25.25V25.25Z" fill="black"/>
<path d="M29.4167 25.25H25.25V29.4167H29.4167V25.25Z" fill="black"/>
<path d="M37.75 25.25H33.5833V29.4167H37.75L37.75 25.25Z" fill="black"/>
<path d="M46.0833 25.25H41.9167L41.9167 29.4167H46.0833V25.25Z" fill="black"/>
<path d="M54.4167 25.25H50.25V29.4167H54.4167V25.25Z" fill="black"/>
<path d="M62.75 25.25H58.5833V29.4167H62.75V25.25Z" fill="black"/>
<path d="M66.9167 25.25H62.75V29.4167H66.9167V25.25Z" fill="black"/>
<path d="M71.0833 25.25H66.9167V29.4167H71.0833V25.25Z" fill="black"/>
<path d="M75.25 25.25H71.0833V29.4167H75.25V25.25Z" fill="black"/>
<path d="M79.4167 25.25H75.25V29.4167H79.4167V25.25Z" fill="black"/>
<path d="M83.5833 25.25H79.4167V29.4167H83.5833V25.25Z" fill="black"/>
<path d="M87.75 25.25H83.5833V29.4167H87.75V25.25Z" fill="black"/>
<path d="M41.9167 29.4167H37.75L37.75 33.5833H41.9167L41.9167 29.4167Z" fill="black"/>
<path d="M50.25 29.4167H46.0833L46.0833 33.5833H50.25V29.4167Z" fill="black"/>
<path d="M54.4167 29.4167H50.25V33.5833H54.4167V29.4167Z" fill="black"/>
<path d="M8.58333 33.5833H4.41667V37.75H8.58333V33.5833Z" fill="black"/>
<path d="M12.75 33.5833H8.58333V37.75H12.75V33.5833Z" fill="black"/>
<path d="M16.9167 33.5833H12.75V37.75H16.9167V33.5833Z" fill="black"/>
<path d="M29.4167 33.5833H25.25V37.75H29.4167V33.5833Z" fill="black"/>
<path d="M33.5833 33.5833H29.4167V37.75H33.5833V33.5833Z" fill="black"/>
<path d="M37.75 33.5833L33.5833 33.5833V37.75H37.75L37.75 33.5833Z" fill="black"/>
<path d="M58.5833 33.5833L54.4167 33.5833V37.75H58.5833V33.5833Z" fill="black"/>
<path d="M87.75 33.5833H83.5833V37.75H87.75V33.5833Z" fill="black"/>
<path d="M4.41667 37.75L0.25 37.75V41.9167H4.41667V37.75Z" fill="black"/>
<path d="M8.58333 37.75H4.41667V41.9167H8.58333V37.75Z" fill="black"/>
<path d="M25.25 37.75L21.0833 37.75V41.9167H25.25V37.75Z" fill="black"/>
<path d="M33.5833 37.75H29.4167V41.9167H33.5833V37.75Z" fill="black"/>
<path d="M37.75 37.75H33.5833V41.9167H37.75V37.75Z" fill="black"/>
<path d="M46.0833 37.75H41.9167V41.9167H46.0833V37.75Z" fill="black"/>
<path d="M50.25 37.75H46.0833V41.9167H50.25V37.75Z" fill="black"/>
<path d="M58.5833 37.75H54.4167V41.9167H58.5833V37.75Z" fill="black"/>
<path d="M62.75 37.75L58.5833 37.75V41.9167H62.75V37.75Z" fill="black"/>
<path d="M79.4167 37.75H75.25V41.9167H79.4167V37.75Z" fill="black"/>
<path d="M83.5833 37.75L79.4167 37.75V41.9167H83.5833V37.75Z" fill="black"/>
<path d="M16.9167 41.9167H12.75V46.0833H16.9167V41.9167Z" fill="black"/>
<path d="M21.0833 41.9167L16.9167 41.9167V46.0833H21.0833V41.9167Z" fill="black"/>
<path d="M25.25 41.9167H21.0833V46.0833H25.25V41.9167Z" fill="black"/>
<path d="M29.4167 41.9167H25.25V46.0833H29.4167V41.9167Z" fill="black"/>
<path d="M33.5833 41.9167H29.4167V46.0833H33.5833V41.9167Z" fill="black"/>
<path d="M41.9167 41.9167H37.75L37.75 46.0833H41.9167L41.9167 41.9167Z" fill="black"/>
<path d="M54.4167 41.9167H50.25V46.0833H54.4167V41.9167Z" fill="black"/>
<path d="M62.75 41.9167H58.5833V46.0833H62.75V41.9167Z" fill="black"/>
<path d="M83.5833 41.9167H79.4167V46.0833H83.5833V41.9167Z" fill="black"/>
<path d="M87.75 41.9167L83.5833 41.9167V46.0833H87.75V41.9167Z" fill="black"/>
<path d="M12.75 46.0833L8.58333 46.0833V50.25H12.75V46.0833Z" fill="black"/>
<path d="M16.9167 46.0833H12.75V50.25H16.9167V46.0833Z" fill="black"/>
<path d="M25.25 46.0833H21.0833V50.25H25.25V46.0833Z" fill="black"/>
<path d="M37.75 46.0833H33.5833L33.5833 50.25H37.75L37.75 46.0833Z" fill="black"/>
<path d="M41.9167 46.0833H37.75L37.75 50.25H41.9167V46.0833Z" fill="black"/>
<path d="M50.25 46.0833L46.0833 46.0833V50.25H50.25V46.0833Z" fill="black"/>
<path d="M54.4167 46.0833H50.25V50.25H54.4167V46.0833Z" fill="black"/>
<path d="M62.75 46.0833H58.5833V50.25H62.75V46.0833Z" fill="black"/>
<path d="M71.0833 46.0833H66.9167V50.25H71.0833V46.0833Z" fill="black"/>
<path d="M75.25 46.0833H71.0833V50.25H75.25V46.0833Z" fill="black"/>
<path d="M79.4167 46.0833L75.25 46.0833V50.25H79.4167V46.0833Z" fill="black"/>
<path d="M83.5833 46.0833H79.4167V50.25H83.5833V46.0833Z" fill="black"/>
<path d="M4.41667 50.25H0.25V54.4167H4.41667V50.25Z" fill="black"/>
<path d="M8.58333 50.25H4.41667V54.4167H8.58333V50.25Z" fill="black"/>
<path d="M16.9167 50.25H12.75V54.4167H16.9167V50.25Z" fill="black"/>
<path d="M21.0833 50.25H16.9167V54.4167H21.0833V50.25Z" fill="black"/>
<path d="M29.4167 50.25H25.25V54.4167H29.4167V50.25Z" fill="black"/>
<path d="M41.9167 50.25H37.75L37.75 54.4167H41.9167V50.25Z" fill="black"/>
<path d="M46.0833 50.25H41.9167V54.4167H46.0833L46.0833 50.25Z" fill="black"/>
<path d="M50.25 50.25H46.0833L46.0833 54.4167H50.25V50.25Z" fill="black"/>
<path d="M54.4167 50.25H50.25V54.4167H54.4167V50.25Z" fill="black"/>
<path d="M58.5833 50.25H54.4167V54.4167H58.5833V50.25Z" fill="black"/>
<path d="M75.25 50.25H71.0833V54.4167H75.25V50.25Z" fill="black"/>
<path d="M79.4167 50.25H75.25V54.4167H79.4167V50.25Z" fill="black"/>
<path d="M83.5833 50.25H79.4167V54.4167H83.5833V50.25Z" fill="black"/>
<path d="M87.75 50.25H83.5833V54.4167H87.75V50.25Z" fill="black"/>
<path d="M37.75 54.4167H33.5833V58.5833H37.75L37.75 54.4167Z" fill="black"/>
<path d="M41.9167 54.4167H37.75L37.75 58.5833H41.9167V54.4167Z" fill="black"/>
<path d="M50.25 54.4167H46.0833L46.0833 58.5833H50.25V54.4167Z" fill="black"/>
<path d="M54.4167 54.4167H50.25V58.5833H54.4167V54.4167Z" fill="black"/>
<path d="M62.75 54.4167H58.5833V58.5833H62.75V54.4167Z" fill="black"/>
<path d="M71.0833 54.4167H66.9167V58.5833H71.0833V54.4167Z" fill="black"/>
<path d="M75.25 54.4167H71.0833V58.5833H75.25V54.4167Z" fill="black"/>
<path d="M79.4167 54.4167H75.25V58.5833H79.4167V54.4167Z" fill="black"/>
<path d="M83.5833 54.4167H79.4167V58.5833H83.5833V54.4167Z" fill="black"/>
<path d="M4.41667 58.5833H0.25V62.75H4.41667V58.5833Z" fill="black"/>
<path d="M8.58333 58.5833H4.41667V62.75H8.58333V58.5833Z" fill="black"/>
<path d="M12.75 58.5833H8.58333V62.75H12.75V58.5833Z" fill="black"/>
<path d="M16.9167 58.5833H12.75V62.75H16.9167V58.5833Z" fill="black"/>
<path d="M21.0833 58.5833H16.9167V62.75H21.0833V58.5833Z" fill="black"/>
<path d="M25.25 58.5833H21.0833V62.75H25.25V58.5833Z" fill="black"/>
<path d="M29.4167 58.5833H25.25V62.75H29.4167V58.5833Z" fill="black"/>
<path d="M37.75 58.5833H33.5833V62.75H37.75V58.5833Z" fill="black"/>
<path d="M46.0833 58.5833H41.9167L41.9167 62.75H46.0833L46.0833 58.5833Z" fill="black"/>
<path d="M50.25 58.5833H46.0833L46.0833 62.75H50.25V58.5833Z" fill="black"/>
<path d="M54.4167 58.5833H50.25V62.75H54.4167V58.5833Z" fill="black"/>
<path d="M66.9167 58.5833H62.75V62.75H66.9167V58.5833Z" fill="black"/>
<path d="M75.25 58.5833H71.0833V62.75H75.25V58.5833Z" fill="black"/>
<path d="M83.5833 58.5833H79.4167V62.75H83.5833V58.5833Z" fill="black"/>
<path d="M4.41667 62.75H0.25V66.9167H4.41667V62.75Z" fill="black"/>
<path d="M29.4167 62.75H25.25V66.9167H29.4167V62.75Z" fill="black"/>
<path d="M46.0833 62.75H41.9167V66.9167H46.0833V62.75Z" fill="black"/>
<path d="M50.25 62.75H46.0833V66.9167H50.25V62.75Z" fill="black"/>
<path d="M66.9167 62.75H62.75V66.9167H66.9167V62.75Z" fill="black"/>
<path d="M71.0833 62.75H66.9167V66.9167H71.0833V62.75Z" fill="black"/>
<path d="M83.5833 62.75H79.4167V66.9167H83.5833V62.75Z" fill="black"/>
<path d="M87.75 62.75H83.5833V66.9167H87.75V62.75Z" fill="black"/>
<path d="M4.41667 66.9167H0.25V71.0833H4.41667V66.9167Z" fill="black"/>
<path d="M12.75 66.9167H8.58333V71.0833H12.75V66.9167Z" fill="black"/>
<path d="M16.9167 66.9167H12.75V71.0833H16.9167V66.9167Z" fill="black"/>
<path d="M21.0833 66.9167H16.9167V71.0833H21.0833V66.9167Z" fill="black"/>
<path d="M29.4167 66.9167H25.25V71.0833H29.4167V66.9167Z" fill="black"/>
<path d="M41.9167 66.9167H37.75V71.0833H41.9167L41.9167 66.9167Z" fill="black"/>
<path d="M58.5833 66.9167H54.4167V71.0833H58.5833V66.9167Z" fill="black"/>
<path d="M66.9167 66.9167H62.75V71.0833H66.9167V66.9167Z" fill="black"/>
<path d="M75.25 66.9167H71.0833V71.0833H75.25V66.9167Z" fill="black"/>
<path d="M79.4167 66.9167H75.25V71.0833H79.4167V66.9167Z" fill="black"/>
<path d="M87.75 66.9167H83.5833V71.0833H87.75V66.9167Z" fill="black"/>
<path d="M4.41667 71.0833H0.25V75.25H4.41667V71.0833Z" fill="black"/>
<path d="M12.75 71.0833H8.58333V75.25H12.75V71.0833Z" fill="black"/>
<path d="M16.9167 71.0833H12.75V75.25H16.9167V71.0833Z" fill="black"/>
<path d="M21.0833 71.0833H16.9167V75.25H21.0833V71.0833Z" fill="black"/>
<path d="M29.4167 71.0833H25.25V75.25H29.4167V71.0833Z" fill="black"/>
<path d="M37.75 71.0833H33.5833V75.25H37.75L37.75 71.0833Z" fill="black"/>
<path d="M46.0833 71.0833H41.9167L41.9167 75.25H46.0833V71.0833Z" fill="black"/>
<path d="M50.25 71.0833H46.0833V75.25H50.25V71.0833Z" fill="black"/>
<path d="M54.4167 71.0833H50.25V75.25H54.4167V71.0833Z" fill="black"/>
<path d="M58.5833 71.0833H54.4167V75.25H58.5833V71.0833Z" fill="black"/>
<path d="M66.9167 71.0833H62.75V75.25H66.9167V71.0833Z" fill="black"/>
<path d="M75.25 71.0833H71.0833V75.25H75.25V71.0833Z" fill="black"/>
<path d="M79.4167 71.0833H75.25V75.25H79.4167V71.0833Z" fill="black"/>
<path d="M83.5833 71.0833H79.4167V75.25H83.5833V71.0833Z" fill="black"/>
<path d="M4.41667 75.25H0.25V79.4167H4.41667V75.25Z" fill="black"/>
<path d="M12.75 75.25H8.58333V79.4167H12.75V75.25Z" fill="black"/>
<path d="M16.9167 75.25H12.75V79.4167H16.9167V75.25Z" fill="black"/>
<path d="M21.0833 75.25H16.9167V79.4167H21.0833V75.25Z" fill="black"/>
<path d="M29.4167 75.25H25.25V79.4167H29.4167V75.25Z" fill="black"/>
<path d="M37.75 75.25H33.5833V79.4167H37.75V75.25Z" fill="black"/>
<path d="M46.0833 75.25H41.9167V79.4167H46.0833V75.25Z" fill="black"/>
<path d="M50.25 75.25H46.0833V79.4167H50.25V75.25Z" fill="black"/>
<path d="M62.75 75.25H58.5833V79.4167H62.75V75.25Z" fill="black"/>
<path d="M66.9167 75.25H62.75V79.4167H66.9167V75.25Z" fill="black"/>
<path d="M79.4167 75.25H75.25V79.4167H79.4167V75.25Z" fill="black"/>
<path d="M83.5833 75.25H79.4167V79.4167H83.5833V75.25Z" fill="black"/>
<path d="M4.41667 79.4167H0.25V83.5833H4.41667V79.4167Z" fill="black"/>
<path d="M29.4167 79.4167H25.25V83.5833H29.4167V79.4167Z" fill="black"/>
<path d="M37.75 79.4167H33.5833V83.5833H37.75V79.4167Z" fill="black"/>
<path d="M46.0833 79.4167H41.9167V83.5833H46.0833V79.4167Z" fill="black"/>
<path d="M50.25 79.4167H46.0833V83.5833H50.25V79.4167Z" fill="black"/>
<path d="M58.5833 79.4167H54.4167V83.5833H58.5833V79.4167Z" fill="black"/>
<path d="M62.75 79.4167H58.5833V83.5833H62.75V79.4167Z" fill="black"/>
<path d="M66.9167 79.4167H62.75V83.5833H66.9167V79.4167Z" fill="black"/>
<path d="M71.0833 79.4167H66.9167V83.5833H71.0833V79.4167Z" fill="black"/>
<path d="M79.4167 79.4167H75.25V83.5833H79.4167V79.4167Z" fill="black"/>
<path d="M87.75 79.4167H83.5833V83.5833H87.75V79.4167Z" fill="black"/>
<path d="M4.41667 83.5833H0.25V87.75H4.41667V83.5833Z" fill="black"/>
<path d="M8.58333 83.5833H4.41667V87.75H8.58333V83.5833Z" fill="black"/>
<path d="M12.75 83.5833H8.58333V87.75H12.75V83.5833Z" fill="black"/>
<path d="M16.9167 83.5833H12.75V87.75H16.9167V83.5833Z" fill="black"/>
<path d="M21.0833 83.5833H16.9167V87.75H21.0833V83.5833Z" fill="black"/>
<path d="M25.25 83.5833H21.0833V87.75H25.25V83.5833Z" fill="black"/>
<path d="M29.4167 83.5833H25.25V87.75H29.4167V83.5833Z" fill="black"/>
<path d="M50.25 83.5833H46.0833L46.0833 87.75H50.25V83.5833Z" fill="black"/>
<path d="M54.4167 83.5833H50.25V87.75H54.4167V83.5833Z" fill="black"/>
<path d="M79.4167 83.5833H75.25V87.75H79.4167V83.5833Z" fill="black"/>
</svg>
